<svg width="800" height="800" viewBox="0 0 24 24" xmlns="http://www.w3.org/2000/svg">
    <path d="M23.015 18.4c0 .3-.052.6-.156 1.1-.105.4-.214.8-.329 1-.219.6-.855 1.1-1.907 1.7-.98.5-1.95.8-2.909.8h-.828c-.261-.1-.558-.2-.892-.2q-.5-.15-.75-.3-.234 0-.86-.3c-.626-.3-.672-.2-.766-.3-1.022-.3-1.934-.8-2.736-1.3q-2.002-1.2-4.144-3.3-2.126-2.25-3.361-4.2-.75-1.2-1.298-2.7c-.031-.1-.125-.4-.282-.8q-.234-.6-.328-.9c-.052-.1-.125-.4-.219-.7s-.161-.6-.203-.9C1.016 6.8 1 6.6 1 6.3c0-1 .266-2 .797-2.9.584-1.1 1.137-1.7 1.658-2q.39-.15 1.063-.3c.459-.1.829-.1 1.11-.1h.329q.28.15.828 1.2c.115.2.271.5.47.8.197.4.38.7.547 1q.25.45.484.9c.031 0 .12.1.266.4.156.2.271.4.344.5.073.2.11.3.11.5s-.152.4-.454.8c-.292.3-.615.6-.97.8-.343.3-.667.5-.969.8-.292.3-.438.6-.438.8q0 .15.079.3.077.3.125.3c.041.1.114.2.219.4q.172.3.187.3c.792 1.4 1.7 2.7 2.72 3.7q1.533 1.5 3.675 2.7c.021 0 .12.1.297.2s.302.2.375.2.178.1.313.1c.146.1.266.1.36.1.187 0 .427-.1.719-.4s.568-.6.829-1c.26-.3.547-.7.86-1s.573-.4.781-.4c.146 0 .292 0 .438.1q.235.15.563.3.328.3.391.3c.261.2.537.3.829.5.302.2.635.3 1 .5s.647.4.845.5c.729.4 1.125.7 1.188.8.031.1.047.2.047.4" fill="#28A2D0FF"/>
    <path d="M1.219 4.75A5.6 5.6 0 0 0 1 6.281c0 .282.031.542.063.813.041.26.093.572.187.906q.141.5.219.75c.062.156.187.457.343.875.157.417.25.656.282.75.365 1.023.78 1.946 1.281 2.75.824 1.336 1.957 2.695 3.375 4.125 1.428 1.419 2.79 2.55 4.125 3.375.803.501 1.728.947 2.75 1.313.094.031.333.124.75.281.417.156.719.25.875.312q.25.078.75.219c.5.141.614.177.875.219.271.031.562.031.844.031.959 0 1.926-.249 2.906-.781q1.579-.876 1.906-1.657c.115-.26.208-.613.313-1.062.104-.459.156-.844.156-1.125 0-.146 0-.271-.031-.344-.037-.111-.227-.263-.5-.437-.253.494-.853 1.012-1.844 1.562-.98.532-1.947.813-2.906.813a7 7 0 0 1-.844-.063c-.261-.042-.541-.093-.875-.187s-.583-.167-.75-.219c-.156-.063-.458-.187-.875-.344s-.656-.25-.75-.281c-1.022-.365-1.947-.78-2.75-1.281-1.334-.825-2.697-1.956-4.125-3.375-1.418-1.43-2.552-2.821-3.375-4.157-.5-.803-.916-1.695-1.281-2.718a25 25 0 0 0-.282-.781c-.156-.418-.28-.688-.343-.844a30 30 0 0 1-.219-.75c-.022-.08-.012-.143-.031-.219" fill="#1e83a8"/>
</svg>
